<svg width="270" height="111" viewBox="0 0 270 111" fill="none" xmlns="http://www.w3.org/2000/svg">
<path d="M20 2.5H250C259.665 2.5 267.5 10.335 267.5 20V91C267.5 100.665 259.665 108.5 250 108.5H20C10.335 108.5 2.5 100.665 2.5 91V20C2.5 10.335 10.335 2.5 20 2.5Z" fill="#4E7980" stroke="#4E7980" stroke-width="5"/>
<path d="M226.585 95.0959C221.99 95.0959 217.999 94.3916 214.611 92.9829C211.258 91.5743 208.675 89.5453 206.864 86.8957C205.053 84.2127 204.147 80.9762 204.147 77.1864C204.147 73.3965 205.053 70.1768 206.864 67.5273C208.675 64.8442 211.258 62.8151 214.611 61.4401C217.999 60.0315 221.99 59.3271 226.585 59.3271C231.213 59.3271 235.204 60.0315 238.558 61.4401C241.912 62.8151 244.494 64.8442 246.305 67.5273C248.116 70.1768 249.022 73.3965 249.022 77.1864C249.022 80.9762 248.116 84.2127 246.305 86.8957C244.494 89.5453 241.912 91.5743 238.558 92.9829C235.204 94.3916 231.213 95.0959 226.585 95.0959ZM226.585 88.2037C228.563 88.2037 230.375 87.9857 232.018 87.5497C233.661 87.0802 235.087 86.4094 236.294 85.5374C237.501 84.6654 238.424 83.5754 239.061 82.2674C239.732 80.9259 240.067 79.4167 240.067 77.7397V76.5827C240.067 74.9057 239.732 73.4133 239.061 72.1053C238.424 70.7973 237.501 69.7073 236.294 68.8353C235.087 67.9633 233.661 67.3093 232.018 66.8733C230.375 66.4038 228.563 66.169 226.585 66.169C224.606 66.169 222.795 66.4038 221.151 66.8733C219.508 67.3093 218.083 67.9633 216.875 68.8353C215.668 69.7073 214.729 70.7973 214.058 72.1053C213.421 73.4133 213.102 74.9057 213.102 76.5827V77.7397C213.102 79.4167 213.421 80.9259 214.058 82.2674C214.729 83.5754 215.668 84.6654 216.875 85.5374C218.083 86.4094 219.508 87.0802 221.151 87.5497C222.795 87.9857 224.606 88.2037 226.585 88.2037Z" fill="#E0F2E6" fill-opacity="0.5"/>
<path d="M156.676 94.4922V59.9309H164.674L183.188 77.287C183.557 77.5889 184.009 78.0249 184.546 78.595C185.116 79.1652 185.703 79.7689 186.307 80.4061C186.91 81.0098 187.43 81.5464 187.866 82.016H188.319C188.286 81.3452 188.235 80.5067 188.168 79.5006C188.135 78.4944 188.118 77.656 188.118 76.9852V59.9309H196.419V94.4922H188.571L170.208 77.1361C169.336 76.3312 168.431 75.4424 167.492 74.4698C166.553 73.4972 165.798 72.709 165.228 72.1054H164.825C164.859 72.5414 164.892 73.2792 164.926 74.3189C164.96 75.3586 164.976 76.5324 164.976 77.8404V94.4922H156.676Z" fill="#E0F2E6" fill-opacity="0.5"/>
<path d="M106.923 94.4922L124.078 59.9309H133.837L150.992 94.4922H141.535L138.516 88.2541H118.846L115.827 94.4922H106.923ZM122.015 81.5632H135.347L131.674 73.6649C131.54 73.3295 131.322 72.8264 131.02 72.1557C130.718 71.4849 130.417 70.7974 130.115 70.093C129.846 69.3887 129.595 68.7515 129.36 68.1814C129.125 67.6112 128.974 67.259 128.907 67.1249H128.505C128.237 67.7957 127.918 68.5503 127.549 69.3887C127.18 70.2272 126.828 71.0489 126.493 71.8538C126.191 72.6252 125.922 73.2457 125.688 73.7152L122.015 81.5632Z" fill="#E0F2E6" fill-opacity="0.5"/>
<path d="M66.9669 94.4922V59.9309H102.383V66.7727H75.6701V73.5643H99.2644V80.3055H75.6701V87.6001H102.786V94.4922H66.9669Z" fill="#E0F2E6" fill-opacity="0.5"/>
<path d="M20 94.4922V59.9309H38.7647C43.0241 59.9309 46.6798 60.6017 49.7318 61.9432C52.7838 63.2512 55.1315 65.1964 56.7749 67.7789C58.4183 70.3278 59.2399 73.4804 59.2399 77.2367C59.2399 80.9595 58.4183 84.1121 56.7749 86.6946C55.1315 89.2435 52.7838 91.1887 49.7318 92.5302C46.6798 93.8382 43.0241 94.4922 38.7647 94.4922H20ZM28.7032 87.6001H38.312C40.056 87.6001 41.649 87.3989 43.0912 86.9964C44.5669 86.5604 45.8413 85.9399 46.9146 85.135C47.9878 84.2966 48.8095 83.2736 49.3797 82.0663C49.9498 80.8253 50.2349 79.4 50.2349 77.7901V76.633C50.2349 75.0232 49.9498 73.6146 49.3797 72.4072C48.8095 71.1663 47.9878 70.1434 46.9146 69.3384C45.8413 68.5 44.5669 67.8627 43.0912 67.4267C41.649 66.9907 40.056 66.7727 38.312 66.7727H28.7032V87.6001Z" fill="#E0F2E6" fill-opacity="0.5"/>
<path d="M209.744 50.5839V16H237.394C239.851 16 241.861 16.5034 243.422 17.5102C245.016 18.517 246.212 19.8427 247.009 21.4871C247.806 23.1316 248.204 24.9606 248.204 26.9742C248.204 29.055 247.673 31.0015 246.61 32.8137C245.581 34.5924 244.003 36.0019 241.877 37.0423L249.001 50.5839H239.337L233.308 38.6029H218.363V50.5839H209.744ZM218.363 31.7566H234.853C236.248 31.7566 237.344 31.3371 238.141 30.498C238.971 29.6255 239.386 28.518 239.386 27.1756C239.386 26.2359 239.204 25.4472 238.838 24.8096C238.473 24.1719 237.958 23.6853 237.294 23.3497C236.63 23.0141 235.816 22.8463 234.853 22.8463H218.363V31.7566Z" fill="#E0F2E6"/>
<path d="M162.074 50.5839V16H197.194V22.8463H170.705V29.6423H194.101V36.3879H170.705V43.6872H197.593V50.5839H162.074Z" fill="#E0F2E6"/>
<path d="M127.844 50.5839V23.3497H112.535V16H151.793V23.3497H136.534V50.5839H127.844Z" fill="#E0F2E6"/>
<path d="M66.735 50.5839V16H101.854V22.8463H75.3652V29.6423H98.7616V36.3879H75.3652V43.6872H102.254V50.5839H66.735Z" fill="#E0F2E6"/>
<path d="M20 50.5839V16H45.4383C47.6446 16 49.571 16.4866 51.2175 17.4599C52.8639 18.4331 54.1482 19.7923 55.0702 21.5374C55.9923 23.249 56.4533 25.2291 56.4533 27.4776C56.4533 29.7262 55.9758 31.7398 55.0208 33.5185C54.0988 35.2636 52.7981 36.6228 51.1187 37.5961C49.4392 38.5693 47.4964 39.0559 45.2901 39.0559H28.5453V50.5839H20ZM28.5453 32.1593H42.9191C44.5656 32.1593 45.8334 31.7566 46.7225 30.9511C47.6116 30.1457 48.0562 29.0046 48.0562 27.528C48.0562 26.5547 47.8586 25.7325 47.4635 25.0613C47.0683 24.3565 46.4756 23.8196 45.6852 23.4504C44.9279 23.0477 44.0058 22.8463 42.9191 22.8463H28.5453V32.1593Z" fill="#E0F2E6"/>
</svg>
