<svg width="100" height="100" viewBox="0 0 100 100" fill="none" xmlns="http://www.w3.org/2000/svg">
<path d="M34.55 57.2C39.575 57.2 55.4875 59.7125 55.4875 65.575C55.4875 71.4375 46.9349 70.1622 42.925 70.6C39.4534 70.6 31.2 70.6 31.2 75.625C31.2 82.325 65.6124 84 72.2375 84" stroke="#5B5B5B" stroke-width="6.7" stroke-linecap="round" stroke-linejoin="round"/>
<path d="M63.025 35.425C63.025 28.2783 55.8722 17 45.9484 17C36.0247 17 28.4078 30.4 25.4131 42.9067C22.4183 55.4133 22.8461 70.6 22.8461 70.6" stroke="#5B5B5B" stroke-width="6.7" stroke-linecap="round" stroke-linejoin="round"/>
<path d="M54.65 50.5C54.65 46.3125 56.995 38.775 64.7 38.775C71.4 38.775 75.085 45.546 76.425 51.3375C77.765 57.129 78.1 65.575 78.1 65.575" stroke="#5B5B5B" stroke-width="6.7" stroke-linecap="round" stroke-linejoin="round"/>
</svg>
