<svg width="754" height="921" viewBox="0 0 754 921" fill="none" xmlns="http://www.w3.org/2000/svg">
<path d="M378.1 0L0 154.2V505C0 661.7 99.5 771.2 368.2 915.5L375.7 920.5L383.2 915.5C654.3 773.7 753.8 661.7 753.8 505V154.2L378.1 0ZM427.9 124.4C440.3 124.4 447.8 131.9 447.8 141.8C447.8 151.7 440.3 159.2 427.9 159.2C415.5 159.2 408 151.7 408 141.8C408 131.9 415.4 124.4 427.9 124.4ZM427.9 174.1C440.3 174.1 447.8 181.6 447.8 191.5C447.8 201.4 437.8 208.9 427.9 208.9C417.9 208.9 408 201.4 408 191.5C408 181.6 415.4 174.1 427.9 174.1ZM375.6 89.6C388 89.6 398 97.1 398 107C398 117 388 124.4 378.1 124.4C365.7 124.4 358.2 116.9 358.2 107C358.2 97 365.7 89.6 375.6 89.6ZM375.6 209C385.6 209 395.5 216.5 395.5 226.4C395.5 236.4 385.5 243.8 375.6 243.8C365.6 243.8 355.7 236.3 355.7 226.4C355.7 216.4 365.7 209 375.6 209ZM328.4 124.4C340.8 124.4 348.3 131.9 348.3 141.8C348.3 151.7 340.8 159.2 328.4 159.2C316 159.2 308.5 151.7 308.5 141.8C306 131.9 315.9 124.4 328.4 124.4ZM325.9 174.1C335.9 174.1 345.8 181.6 345.8 191.5C345.8 201.4 340.8 211.4 328.4 211.4C316 211.4 306 201.4 306 191.5C306 181.6 315.9 174.1 325.9 174.1ZM626.9 665.6C598.4 687.8 560.6 697.7 524.9 692.5C489.1 687.3 455.8 667.2 434.5 638C416 612.7 406.6 581.5 404.6 550.2C402.5 518.9 407.4 487.5 415.4 457.2C401.3 474.2 386.6 492.8 385 514.8C383.8 531.2 390.3 546.2 394.9 561.6C399.7 577.5 402.3 594.1 402.7 610.8C403.2 629.1 403.6 663.8 375.7 713.2C347.9 663.8 348.2 629.1 348.7 610.8C349.2 594.2 351.7 577.6 356.5 561.6C361.1 546.2 367.6 531.3 366.4 514.8C364.8 492.8 350.1 474.2 336 457.2C344 487.5 348.9 518.9 346.8 550.2C344.7 581.5 335.4 612.7 316.9 638C295.6 667.2 262.3 687.3 226.5 692.5C190.7 697.7 153 687.8 124.5 665.6C98.1 645.1 79.5 612.4 82.9 579.2C85.7 552 103.2 527.5 126.5 513.2C149.8 498.9 178.2 494.3 205.4 497.3C229.3 499.9 253.7 509 268.6 527.8C283.5 546.6 285.7 576.6 268.9 593.8C276.6 571.2 269.2 544.3 251.1 528.8C234.3 514.4 210.8 510.4 188.7 511.4C167.2 512.3 144.9 518 129.5 532.9C108.6 553.1 105.4 589 122.6 612.5C139.4 635.5 170.4 643.9 198.8 642.9C240.9 641.5 283.4 621.1 305.7 585.3C320.2 562 325.5 533.8 324.9 506.3C323.9 463 308.5 420.1 281.3 386.4C254.6 353.4 214.4 327.6 172.4 319.4C160.9 317.2 148.7 317.4 138.1 322.1C105 336.7 104.9 383.3 125 408.5C140.9 428.4 167.8 438 193.2 435.8C200.3 435.2 208.4 432.9 211.3 426.4C213.2 422.1 212.2 417 210.8 412.5C206.6 399.3 198.6 387.3 188 378.4C207.7 384.3 225.4 396.4 237.9 412.7C244.4 421.1 249.7 431.5 247.5 441.9C245.9 449.6 240.3 455.9 233.9 460.5C214.7 474.3 188.4 474.4 166.1 466.7C138.3 457.1 114.6 435.9 102.2 409.2C87.1 376.8 89 337.5 108.2 307.1C121.7 285.8 144.5 269.2 169.7 268.3C200.8 267.2 223.7 285.9 255.6 313.7C269.7 326 289.6 345.4 313.3 379C331.6 404.9 355.8 444.5 375.9 498.1C395.9 444.4 420.2 404.9 438.5 379C462.2 345.4 482.1 325.9 496.2 313.7C528.1 285.9 551 267.2 582.1 268.3C607.3 269.2 630.1 285.8 643.6 307.1C662.8 337.4 664.7 376.8 649.6 409.2C637.2 435.9 613.5 457.1 585.7 466.7C563.4 474.4 537.1 474.3 517.9 460.5C511.5 455.9 505.9 449.6 504.3 441.9C502.1 431.6 507.4 421.1 513.9 412.7C526.4 396.5 544.2 384.3 563.8 378.4C553.2 387.3 545.2 399.3 541 412.5C539.6 417 538.6 422.1 540.5 426.4C543.4 432.9 551.5 435.2 558.6 435.8C584 438.1 610.9 428.5 626.8 408.5C646.9 383.3 646.8 336.7 613.7 322.1C603 317.4 590.8 317.2 579.4 319.4C537.4 327.5 497.3 353.3 470.5 386.4C443.3 420 427.9 463 426.9 506.3C426.3 533.8 431.5 562 446.1 585.3C468.4 621.1 510.9 641.4 553 642.9C581.5 643.9 612.5 635.5 629.2 612.5C646.3 589 643.2 553.1 622.3 532.9C606.8 518 584.5 512.3 563.1 511.4C541 510.4 517.5 514.4 500.7 528.8C482.6 544.3 475.2 571.2 482.9 593.8C466.1 576.6 468.2 546.7 483.2 527.8C498.1 509 522.5 499.9 546.4 497.3C573.6 494.3 602 498.9 625.3 513.2C648.6 527.5 666.1 552 668.9 579.2C671.9 612.4 653.2 645.1 626.9 665.6Z" fill="#DBA860"/>
<path d="M375.8 665.5C375.8 665.5 409.9 616.7 375.8 550.4C341.8 616.7 375.8 665.5 375.8 665.5Z" fill="#DBA860"/>
</svg>
